<?xml version="1.0" standalone="no"?>
<!DOCTYPE svg PUBLIC "-//W3C//DTD SVG 20010904//EN"
 "http://www.w3.org/TR/2001/REC-SVG-20010904/DTD/svg10.dtd">
<svg version="1.0" xmlns="http://www.w3.org/2000/svg"
 width="512.000000pt" height="512.000000pt" viewBox="0 0 512.000000 512.000000"
 preserveAspectRatio="xMidYMid meet">
<metadata>
Created by potrace 1.14, written by Peter Selinger 2001-2017
</metadata>
<g transform="translate(0.000000,512.000000) scale(0.100000,-0.100000)"
fill="#000000" stroke="none">
<path d="M2559 4656 c-2 -2 -60 -6 -129 -10 -680 -33 -1321 -398 -1713 -975
-164 -242 -298 -568 -341 -831 -3 -19 -8 -46 -10 -59 -3 -13 -8 -49 -11 -80
-4 -31 -8 -72 -11 -91 -6 -48 -6 -304 1 -365 12 -128 18 -168 41 -277 117
-559 455 -1061 932 -1381 370 -249 788 -379 1227 -380 104 -1 259 8 315 17 14
3 42 7 62 10 21 3 59 11 85 17 27 6 59 13 73 15 14 3 34 8 45 11 11 4 22 7 25
8 29 5 176 55 255 87 173 71 353 173 494 282 35 27 73 56 85 65 49 38 267 262
317 326 128 163 226 328 303 509 248 581 238 1246 -27 1811 -293 624 -842
1071 -1517 1231 -101 24 -305 51 -399 53 -47 1 -88 4 -91 6 -4 3 -9 3 -11 1z
m-699 -695 c3 -6 5 -37 4 -70 l-2 -59 64 -4 64 -3 0 72 0 71 70 0 70 0 0 -208
0 -208 -42 -3 c-24 -2 -55 -3 -70 -1 -27 3 -28 5 -28 71 l0 68 -60 2 c-42 1
-60 -3 -61 -11 -1 -7 -3 -31 -4 -53 -1 -22 -3 -49 -4 -60 -1 -20 -14 -22 -127
-16 -7 1 -10 68 -10 209 l0 208 65 2 c35 2 67 -2 71 -7z m720 -62 c0 -77 3
-74 -86 -69 -18 1 -33 -4 -36 -12 -2 -7 -4 -70 -3 -140 0 -81 -3 -128 -10
-129 -48 -4 -103 -3 -115 3 -13 5 -15 28 -14 130 0 67 -1 129 -4 136 -3 9 -20
13 -46 12 -79 -3 -75 -7 -74 68 l1 69 193 0 194 1 0 -69z m250 -4 c35 -59 47
-72 55 -61 5 8 27 42 48 75 l37 61 70 0 70 0 0 -209 0 -210 -32 -3 c-18 -2
-50 -1 -71 1 -38 3 -38 4 -37 45 1 22 1 68 1 101 l-1 60 -47 -76 -47 -76 -21
31 c-11 17 -33 51 -48 76 l-27 45 -1 -50 c-1 -27 -1 -73 -1 -102 l0 -51 -53
-4 c-92 -6 -85 -22 -85 206 0 111 3 206 7 209 3 4 36 7 72 7 l67 0 44 -75z
m491 46 c0 -14 0 -78 0 -141 l-1 -115 92 0 c55 1 96 -3 100 -10 4 -5 8 -36 8
-67 l0 -58 -40 -1 c-22 0 -85 0 -140 0 -55 0 -113 0 -130 0 l-30 1 0 210 0
209 70 -1 c68 -1 70 -2 71 -27z m393 -617 c-1 -60 -15 -247 -19 -264 -2 -8 -7
-51 -10 -95 -4 -44 -8 -98 -11 -120 -2 -22 -6 -76 -9 -121 -3 -44 -7 -89 -9
-100 -2 -10 -7 -62 -10 -114 -4 -52 -9 -111 -11 -130 -6 -47 -19 -190 -30
-320 -14 -166 -26 -300 -40 -445 -2 -22 -6 -78 -10 -125 -4 -47 -8 -96 -10
-110 -2 -14 -7 -61 -10 -105 -12 -137 -12 -143 -19 -153 -3 -5 -16 -12 -28
-15 -13 -3 -104 -28 -203 -55 -99 -28 -290 -81 -423 -118 l-244 -67 -126 36
c-136 39 -388 109 -567 157 -157 43 -189 53 -197 59 -3 3 -9 35 -13 71 -3 36
-8 83 -10 105 -2 22 -7 81 -10 130 -4 50 -9 104 -11 120 -2 17 -6 64 -9 105
-3 41 -8 91 -10 110 -3 19 -7 71 -10 115 -3 44 -8 91 -10 105 -2 14 -7 64 -10
112 -3 48 -8 95 -9 105 -2 10 -7 65 -11 123 -4 58 -9 112 -10 121 -2 9 -6 52
-10 95 -6 80 -10 130 -19 219 -6 60 -16 169 -22 244 -2 30 -6 73 -8 95 -3 23
-8 82 -11 131 -4 50 -8 101 -10 115 l-4 25 1097 -1 1097 -1 -1 -39z"/>
<path d="M1936 2862 c4 -50 12 -141 19 -227 3 -33 7 -76 10 -95 2 -19 7 -69
10 -110 3 -41 7 -93 10 -115 2 -22 6 -76 10 -120 4 -44 9 -87 11 -95 1 -8 3
-18 3 -22 1 -3 193 -6 429 -7 235 0 449 0 475 0 l49 -1 -6 -57 c-4 -32 -9 -87
-12 -123 -3 -36 -7 -81 -9 -100 -2 -19 -4 -45 -4 -56 -1 -21 -5 -23 -111 -50
-8 -2 -57 -15 -109 -28 l-93 -26 -72 21 c-39 11 -75 21 -81 23 -81 18 -152 41
-152 50 0 6 -4 52 -8 101 -4 50 -8 96 -8 103 0 14 9 13 -147 15 l-125 1 1 -55
c0 -30 4 -88 8 -129 3 -41 9 -109 13 -150 9 -113 6 -110 124 -142 57 -15 136
-37 174 -47 288 -81 277 -78 325 -64 44 14 250 71 281 78 25 5 233 66 235 68
1 1 5 40 8 87 7 84 10 112 20 220 3 30 8 87 12 125 3 39 7 93 9 120 2 28 7 70
9 95 3 25 8 79 11 122 l6 76 -500 -1 c-328 -1 -501 1 -502 8 -4 27 -7 57 -13
130 -4 44 -9 95 -12 113 l-5 32 530 0 531 0 1 38 c1 20 3 46 4 57 1 11 6 56 9
100 l7 80 -689 0 -690 0 4 -43z"/>
</g>
</svg>
